<?xml version="1.0" encoding="utf-8"?>
<!-- Generator: Adobe Illustrator 16.0.3, SVG Export Plug-In . SVG Version: 6.00 Build 0)  -->
<!DOCTYPE svg PUBLIC "-//W3C//DTD SVG 1.1//EN" "http://www.w3.org/Graphics/SVG/1.1/DTD/svg11.dtd">
<svg version="1.1" id="Isolationsmodus" xmlns="http://www.w3.org/2000/svg" xmlns:xlink="http://www.w3.org/1999/xlink" x="0px"
	 y="0px" width="325px" height="325.002px" viewBox="0 0 325 325.002" enable-background="new 0 0 325 325.002"
	 xml:space="preserve">
<g>
	
		<rect x="47.598" y="47.595" transform="matrix(-0.7071 -0.7071 0.7071 -0.7071 162.4994 392.3124)" width="229.807" height="229.811"/>
	<g>
		<path fill="#FFFFFF" d="M158.146,67.572c-0.103,0.17,0.102,0.441,0.34,0.34l14.325-7.399c0.542-0.272,0.916-0.238,1.289,0.135
			l2.037,2.037c0.374,0.373,0.374,0.984,0,1.357l-22.403,22.403c-0.374,0.374-0.984,0.374-1.357,0l-0.679-0.679
			c-0.373-0.373-0.374-0.984,0-1.357l19.45-19.451c0.204-0.203,0-0.543-0.271-0.406l-14.631,7.637
			c-0.542,0.271-0.916,0.238-1.29-0.135l-0.95-0.951c-0.374-0.373-0.407-0.746-0.136-1.289l7.637-14.631
			c0.136-0.271-0.204-0.475-0.407-0.271l-19.45,19.45c-0.374,0.374-0.984,0.373-1.357,0l-0.679-0.679
			c-0.374-0.373-0.375-0.984-0.001-1.358l22.403-22.403c0.374-0.373,0.985-0.373,1.359,0.001l2.037,2.036
			c0.374,0.374,0.408,0.747,0.136,1.289L158.146,67.572z"/>
	</g>
	<g>
		<path fill="#FFFFFF" d="M215.404,116.308c-2.342,3.089-7.061,7.808-10.184,10.184c-4.956,3.802-10.557,3.564-14.63-0.51
			c-4.073-4.073-4.311-9.674-0.509-14.629c2.376-3.123,7.094-7.842,10.183-10.184c4.209-3.191,10.149-3.973,14.63,0.508
			C219.376,106.158,218.594,112.099,215.404,116.308z M202.539,103.443c-3.19,2.376-7.807,6.992-10.183,10.183
			c-1.697,2.24-3.259,6.518,0.407,10.184c3.667,3.666,7.943,2.104,10.183,0.407c3.19-2.376,7.808-6.993,10.183-10.183
			c2.105-2.852,2.818-6.959-0.406-10.185C209.498,100.625,205.391,101.338,202.539,103.443z"/>
	</g>
	<g>
		<path fill="#FFFFFF" d="M258.511,149.659c0.204-0.204,0.204-0.476,0.001-0.679l-8.486-8.486c-0.374-0.374-0.374-0.984,0-1.357
			l0.814-0.815c0.373-0.374,0.984-0.374,1.357,0l22.403,22.403c0.374,0.373,0.374,0.984,0,1.357l-5.771,5.771
			c-3.938,3.938-10.318,3.937-14.256-0.001c-3.056-3.056-3.327-6.517-2.411-10.488c0.137-0.679-0.067-1.087-0.849-1.323
			l-12.354-3.803c-0.782-0.237-1.054-0.984-0.374-1.663l0.746-0.747c0.951-0.949,2.41-0.034,3.496,0.307l10.931,3.462
			c0.306,0.102,0.679,0.136,1.052-0.237L258.511,149.659z M270.595,161.743c0.204-0.204,0.204-0.476,0.001-0.679l-9.233-9.233
			c-0.204-0.204-0.476-0.203-0.679,0.001l-3.938,3.938c-2.716,2.715-2.715,7.195,0,9.91c2.716,2.716,7.195,2.717,9.911,0.001
			L270.595,161.743z"/>
	</g>
	<g>
		<path fill="#FFFFFF" d="M214.737,201.512c-0.204-0.204-0.476-0.203-0.679,0l-9.098,9.098c-0.373,0.373-0.984,0.373-1.357,0
			l-0.781-0.781c-0.373-0.373-0.373-0.984,0-1.357l9.098-9.098c0.203-0.203,0.203-0.475,0-0.679l-8.215-8.214
			c-0.203-0.204-0.475-0.203-0.679,0l-9.538,9.538c-0.373,0.373-0.984,0.374-1.358,0l-0.814-0.814
			c-0.374-0.374-0.372-0.985,0.001-1.358l11.371-11.371c0.373-0.373,0.984-0.373,1.357,0l22.402,22.402
			c0.374,0.374,0.373,0.984,0,1.357l-11.303,11.304c-0.373,0.374-0.984,0.374-1.357,0.001l-0.815-0.815
			c-0.372-0.372-0.373-0.984,0.001-1.358l9.469-9.469c0.204-0.204,0.205-0.476,0.002-0.68L214.737,201.512z"/>
	</g>
	<g>
		<path fill="#FFFFFF" d="M62.042,170.492c0.204,0.204,0.476,0.203,0.679,0l9.098-9.098c0.373-0.373,0.984-0.373,1.357,0
			l0.781,0.781c0.373,0.373,0.373,0.984,0,1.357l-9.098,9.098c-0.203,0.203-0.203,0.475,0,0.679l8.215,8.214
			c0.203,0.204,0.475,0.203,0.679,0l9.538-9.538c0.373-0.373,0.984-0.374,1.358,0l0.814,0.814c0.374,0.374,0.372,0.985-0.001,1.358
			l-11.371,11.371c-0.373,0.373-0.984,0.373-1.357,0l-22.402-22.402c-0.374-0.374-0.373-0.984,0-1.357l11.303-11.304
			c0.373-0.374,0.984-0.374,1.357-0.001l0.815,0.815c0.372,0.372,0.373,0.984-0.001,1.358l-9.469,9.469
			c-0.204,0.204-0.205,0.476-0.002,0.68L62.042,170.492z"/>
	</g>
	<g>
		<path fill="#FFFFFF" d="M104.208,111.988c-0.204,0.204-0.203,0.476,0,0.679l9.097,9.098c0.373,0.373,0.373,0.984,0,1.357
			l-0.781,0.781c-0.374,0.373-0.985,0.373-1.358,0l-9.097-9.098c-0.204-0.203-0.476-0.203-0.679,0l-8.214,8.215
			c-0.204,0.203-0.203,0.475,0,0.679l9.538,9.538c0.373,0.373,0.374,0.984,0,1.358l-0.814,0.814
			c-0.374,0.374-0.985,0.372-1.358-0.001l-11.372-11.371c-0.373-0.373-0.374-0.984,0-1.357l22.403-22.402
			c0.374-0.374,0.984-0.373,1.357,0l11.303,11.303c0.374,0.373,0.374,0.984,0,1.357l-0.815,0.815
			c-0.373,0.372-0.984,0.373-1.358-0.001l-9.47-9.469c-0.204-0.204-0.475-0.205-0.679-0.002L104.208,111.988z"/>
	</g>
	<g>
		<path fill="#FFFFFF" d="M140.959,168.474c-0.374,0.373-0.984,0.373-1.358-0.001l-0.814-0.814c-0.373-0.373-0.374-0.984,0-1.358
			l22.403-22.402c0.374-0.373,0.985-0.373,1.358,0l5.771,5.771c3.938,3.938,3.938,10.318,0.001,14.256
			c-3.938,3.938-10.319,3.938-14.257,0l-3.938-3.938c-0.204-0.204-0.476-0.203-0.679,0L140.959,168.474z M162.208,147.903
			c-0.204-0.203-0.475-0.204-0.678,0l-9.233,9.232c-0.204,0.204-0.203,0.475,0,0.679l3.938,3.938c2.715,2.716,7.196,2.716,9.912,0
			c2.715-2.716,2.714-7.196-0.001-9.911L162.208,147.903z"/>
	</g>
	<g>
		<path fill="#FFFFFF" d="M168.165,255.896c1.9,3.056,3.836,7.57-0.136,11.542c-4.073,4.073-9.539,3.225-13.035-0.271
			c-4.005-4.005-3.733-9.505-0.237-13.001l0.441-0.441c0.373-0.373,0.984-0.373,1.358,0l0.814,0.814
			c0.374,0.373,0.374,0.984,0,1.357l-0.441,0.441c-2.444,2.444-2.309,6.11,0.237,8.656c3.021,3.021,6.552,2.342,8.656,0.238
			c3.055-3.056,0.169-6.552-1.459-9.607c-2.546-4.786-3.598-8.826,0.577-13c4.446-4.447,10.522-3.598,14.358,0.238
			c4.378,4.378,4.108,10.488,0.238,14.357l-0.543,0.544c-0.373,0.373-0.985,0.372-1.358-0.001l-0.849-0.848
			c-0.374-0.374-0.374-0.985,0-1.358l0.543-0.544c2.376-2.375,3.156-6.619-0.204-9.979c-3.089-3.089-7.06-3.055-9.979-0.203
			C164.023,247.886,165.212,251.111,168.165,255.896z"/>
	</g>
	<g>
		<path fill="#FFFFFF" d="M131.412,201.4c0.204-0.203,0.205-0.475,0.001-0.678l-8.996-8.996c-0.373-0.373-0.374-0.984,0-1.357
			l0.815-0.814c0.374-0.374,0.984-0.373,1.357,0l10.828,10.828c0.374,0.373,0.374,0.983,0,1.357l-22.403,22.402
			c-0.374,0.374-0.984,0.374-1.358,0l-0.815-0.814c-0.373-0.373-0.374-0.984,0-1.357L131.412,201.4z"/>
	</g>
</g>
</svg>
